<?xml version="1.0" standalone="no"?>
<!DOCTYPE svg PUBLIC "-//W3C//DTD SVG 20010904//EN"
 "http://www.w3.org/TR/2001/REC-SVG-20010904/DTD/svg10.dtd">
<svg version="1.0" xmlns="http://www.w3.org/2000/svg"
 viewBox="0 0 2600.000000 2600.000000"
 preserveAspectRatio="xMidYMid meet">
<metadata>
Created by potrace 1.15, written by Peter Selinger 2001-2017
</metadata>
<g transform="translate(0.000000,2600.000000) scale(0.100000,-0.100000)"
fill="#000000" stroke="none">
<path d="M6020 21784 c-53 -23 -89 -63 -105 -118 -13 -44 -15 -1247 -15 -9935
0 -7202 3 -9897 11 -9926 16 -56 44 -92 92 -118 l42 -22 7055 -3 c5038 -1
7070 1 7108 9 62 13 108 48 133 104 18 39 19 357 19 9955 0 9618 -1 9916 -19
9955 -22 48 -54 79 -103 100 -34 13 -748 15 -7110 15 -6298 -1 -7077 -2 -7108
-16z m13970 -10049 l0 -9695 -259 0 -260 0 -5 43 c-3 23 -10 155 -16 292 -105
2452 -318 5714 -465 7145 -120 1165 -231 1653 -495 2183 -242 486 -547 848
-1210 1437 -382 339 -657 615 -739 740 -311 476 -541 1311 -740 2690 -44 308
-81 593 -176 1365 -101 813 -126 963 -201 1212 -216 715 -682 1202 -1436 1502
-158 63 -397 140 -568 185 -416 108 -808 89 -1207 -60 -453 -168 -894 -551
-1156 -1001 -24 -42 -92 -118 -215 -240 -228 -227 -352 -391 -486 -645 -460
-870 -468 -2124 -21 -3453 67 -201 103 -291 253 -650 149 -354 171 -652 68
-907 -54 -133 -152 -257 -274 -346 -59 -43 -77 -65 -150 -184 -170 -274 -368
-532 -542 -708 -173 -175 -275 -244 -474 -324 -48 -19 -123 -57 -165 -83 -98
-61 -278 -241 -353 -353 -197 -296 -321 -665 -388 -1160 -38 -281 -84 -438
-193 -660 -163 -330 -391 -632 -940 -1244 -324 -360 -331 -368 -378 -458 -299
-576 -384 -2233 -239 -4703 31 -529 97 -1416 116 -1567 l6 -48 -201 0 -201 0
0 9695 0 9695 6855 0 6855 0 0 -9695z m-7500 8370 c211 -35 445 -108 683 -212
159 -70 171 -80 220 -178 72 -144 132 -444 167 -830 19 -210 40 -593 60 -1085
43 -1061 79 -1483 161 -1912 49 -261 112 -455 212 -654 94 -187 194 -470 261
-740 158 -631 208 -1417 125 -1979 -10 -71 -19 -134 -19 -138 0 -5 26 12 58
36 346 263 958 618 1362 790 317 134 658 237 795 238 142 2 228 -137 162 -262
-28 -52 -78 -84 -157 -99 -587 -113 -1344 -493 -2080 -1044 -509 -381 -1060
-908 -1464 -1399 -647 -789 -1094 -1651 -1315 -2535 -56 -224 -57 -225 -98
-264 -101 -96 -273 -39 -299 99 -8 40 24 190 88 418 301 1080 932 2121 1858
3069 107 110 188 197 179 193 -43 -15 -399 -29 -599 -24 -903 27 -1683 243
-1976 549 -123 128 -158 260 -115 431 64 247 291 535 716 907 66 58 233 199
370 315 279 235 445 393 497 475 99 156 139 394 103 617 -50 306 -223 600
-547 924 -62 63 -134 143 -159 179 -425 605 -661 2247 -463 3225 116 574 351
846 784 905 88 12 314 4 430 -15z m-1880 -12896 c478 -43 1033 -230 1946 -657
209 -97 285 -141 417 -240 126 -94 354 -321 470 -467 100 -126 261 -354 255
-360 -2 -3 -139 40 -303 95 -165 55 -315 100 -335 100 -46 -1 -111 -31 -138
-64 -58 -74 -55 -159 9 -250 183 -261 377 -571 366 -583 -8 -8 -274 148 -447
262 -177 117 -422 295 -590 430 -136 108 -147 115 -197 115 -83 0 -139 -66
-130 -154 4 -47 9 -55 63 -104 226 -206 816 -614 1106 -766 54 -28 98 -54 98
-57 0 -14 -140 -31 -297 -36 l-173 -6 -44 37 c-112 92 -361 334 -565 549 -255
269 -264 276 -349 241 -59 -24 -98 -89 -86 -149 8 -47 34 -77 281 -332 112
-117 200 -213 195 -213 -17 0 -236 115 -312 165 -334 217 -785 641 -1130 1063
-48 60 -102 114 -126 128 -35 20 -85 30 -339 64 -165 22 -300 40 -300 40 -9 0
-79 173 -96 235 -28 105 -30 303 -5 419 27 125 98 289 173 401 l34 53 102 21
c159 32 264 37 447 20z m-280 -1584 c87 -22 97 -27 130 -67 241 -293 571 -627
833 -842 98 -80 99 -80 70 -88 -96 -27 -387 -79 -492 -87 -161 -13 -223 -40
-325 -144 -86 -86 -134 -156 -290 -422 -123 -209 -159 -263 -182 -272 -15 -6
-93 43 -101 63 -7 18 62 195 137 350 104 218 201 358 295 425 56 40 79 87 72
146 -8 75 -86 134 -158 119 -71 -14 -215 -152 -313 -300 -66 -98 -162 -281
-207 -393 -18 -46 -35 -83 -39 -83 -3 0 -20 24 -37 53 l-32 53 19 85 c90 413
216 719 335 815 19 16 51 42 70 57 42 35 59 87 45 137 -21 72 -101 120 -168
101 -72 -21 -197 -135 -267 -246 -88 -137 -182 -374 -245 -618 l-23 -87 -19
42 c-98 218 -120 635 -41 780 68 124 322 297 628 425 71 30 87 33 145 28 36
-3 108 -17 160 -30z"/>
</g>
</svg>
